<?xml version="1.0" encoding="utf-8"?>
<!-- Svg Vector Icons : http://www.onlinewebfonts.com/icon -->
<!DOCTYPE svg PUBLIC "-//W3C//DTD SVG 1.1//EN" "http://www.w3.org/Graphics/SVG/1.1/DTD/svg11.dtd">
<svg version="1.1" xmlns="http://www.w3.org/2000/svg" xmlns:xlink="http://www.w3.org/1999/xlink" x="0px" y="0px" viewBox="0 0 1000 1000" enable-background="new 0 0 1000 1000" xml:space="preserve">
<metadata> Svg Vector Icons : http://www.onlinewebfonts.com/icon </metadata>
<g><g transform="translate(0.000000,511.000000) scale(0.100000,-0.100000)"><path d="M4624.4,4991.3c-334.4-39.7-767.1-171.4-1091-334.4c-225.7-112.9-568.5-359.5-775.4-560.1c-526.7-503.7-850.6-1084.7-1001.1-1799.5c-39.7-183.9-48.1-288.4-48.1-647.9c-2.1-449.4,16.7-641.6,104.5-1082.6c202.7-1011.6,716.9-2138.1,1529.9-3348.3c372-553.9,1187.2-1613.5,1469.3-1906.1c100.3-106.6,169.3-125.4,278-77.3c87.8,41.8,777.5,907.1,1249.9,1569.6c1045,1471.4,1672,2804.8,1876.9,3996.2c154.7,909.2,69,1655.3-273.8,2336.7c-384.6,767-997,1333.4-1795.4,1655.3C5702.9,4974.6,5124,5047.8,4624.4,4991.3z M5583.8,4512.7c846.5-173.5,1567.5-725.2,1958.4-1502.7c355.3-702.2,403.4-1527.8,152.6-2564.5C7400-779.3,6597.4-2215.1,5289.1-3857.9c-244.5-307.2-298.9-365.8-321.9-342.8c-14.6,16.7-142.1,175.6-286.3,353.2C3180.2-1981.1,2404.8-482.5,2183.3,974.3c-50.2,328.1-50.2,1001.1,0,1249.8c211.1,1040.8,888.3,1845.5,1833,2179.9c192.3,66.9,413.8,121.2,627,150.5C4860.6,4583.8,5335,4562.9,5583.8,4512.7z"/><path d="M4810.4,2945.2c-179.7-25.1-290.5-60.6-464-150.5c-313.5-163-570.6-461.9-693.9-808.8c-58.5-163-64.8-202.7-64.8-430.6s6.3-267.5,64.8-430.5c160.9-451.5,547.6-815.1,992.8-932.2c426.4-110.8,928,31.3,1260.3,361.6c629.1,616.6,576.9,1540.4-117,2102.6C5516.9,2876.2,5132.3,2989.1,4810.4,2945.2z M5333,2447.8c353.2-140,566.4-468.2,570.6-882c4.2-618.7-472.3-1047.1-1076.4-961.4c-244.5,35.5-403.4,117.1-564.3,286.3c-117,127.5-173.5,234.1-215.3,407.6c-125.4,530.9,131.7,1015.8,627,1178.8C4806.3,2520.9,5188.7,2504.2,5333,2447.8z"/></g></g>
</svg>